<?xml version="1.0" encoding="UTF-8" standalone="no"?>
<!DOCTYPE svg PUBLIC "-//W3C//DTD SVG 1.1//EN" "http://www.w3.org/Graphics/SVG/1.1/DTD/svg11.dtd">
<svg width="100%" height="100%" viewBox="0 0 443 122" version="1.1" xmlns="http://www.w3.org/2000/svg" xmlns:xlink="http://www.w3.org/1999/xlink" xml:space="preserve" xmlns:serif="http://www.serif.com/" style="fill-rule:evenodd;clip-rule:evenodd;stroke-linecap:square;stroke-miterlimit:3.25;">
    <g id="Artboard1" transform="matrix(1.02604,0,0,1,118.598,0)">
        <rect x="-115.588" y="0" width="431.33" height="122" style="fill:none;"/>
        <clipPath id="_clip1">
            <rect x="-115.588" y="0" width="431.33" height="122"/>
        </clipPath>
        <g clip-path="url(#_clip1)">
            <g transform="matrix(2.40489,1.79718e-16,-1.75157e-16,-1,-253.816,134)">
                <rect x="57" y="12" width="180" height="122" style="fill:white;"/>
            </g>
            <g transform="matrix(0.974623,0,0,1,8.41394,0)">
                <clipPath id="_clip2">
                    <rect x="0" y="-1" width="180" height="123"/>
                </clipPath>
                <g clip-path="url(#_clip2)">
                    <g transform="matrix(1,0,0,-1,-57,146.004)">
                        <path d="M70.296,129.404L70.346,129.387L70.396,129.368L70.497,129.332L70.697,129.26L71.097,129.115L71.898,128.822L73.5,128.227L76.973,126.894L80.216,125.587L83.395,124.238L86.843,122.681L90.062,121.121L93.55,119.278L96.974,117.258L97.024,117.227L97.074,117.195L97.174,117.132L97.373,117.005L97.773,116.747L98.571,116.218L100.168,115.092L100.222,115.053L100.277,115.013L100.601,114.77L101.034,114.438L101.9,113.744L102.008,113.654L102.117,113.563L102.333,113.379L102.766,113.002L103.632,112.2L103.682,112.151L103.733,112.102L103.834,112.002L104.036,111.8L104.44,111.38L104.491,111.326L104.541,111.271L104.642,111.161L104.844,110.937L105.249,110.465L105.299,110.404L105.35,110.342L105.451,110.217L105.653,109.959L106.057,109.409L106.108,109.336L106.158,109.263L106.259,109.113L106.461,108.799L106.512,108.718L106.562,108.635L106.663,108.465L106.865,108.104L106.915,108.011L106.964,107.916L107.064,107.718L107.113,107.615L107.163,107.51L107.262,107.288L107.311,107.172L107.361,107.052L107.46,106.796L107.509,106.658L107.559,106.514L107.658,106.199L107.707,106.024L107.757,105.833L107.806,105.623L107.856,105.385L107.906,105.109L107.955,104.77L108.005,104.32L108.054,103.61L108.104,101.883L108.153,40.324L108.203,28.581L108.252,28.599L108.302,28.616L108.351,28.634L108.45,28.67L108.5,28.688L108.549,28.706L108.648,28.742L108.847,28.813L110.035,29.248L110.089,29.268L110.143,29.287L110.25,29.327L110.465,29.407L110.895,29.566L111.755,29.888L113.475,30.543L116.684,31.808L120.162,33.252L123.578,34.758L126.762,36.259L130.217,38.021L133.441,39.834L133.496,39.866L133.55,39.899L133.659,39.964L133.878,40.095L134.314,40.36L135.188,40.905L136.935,42.061L136.988,42.098L137.042,42.135L137.149,42.209L137.363,42.359L137.792,42.665L138.65,43.3L138.703,43.341L138.757,43.382L138.864,43.464L139.078,43.631L139.507,43.971L140.365,44.684L140.415,44.727L140.465,44.771L140.565,44.858L140.765,45.035L141.165,45.398L141.965,46.17L142.015,46.22L142.065,46.271L142.165,46.374L142.365,46.583L142.765,47.019L143.565,47.978L143.673,48.12L143.782,48.264L143.998,48.564L144.053,48.641L144.107,48.72L144.215,48.88L144.432,49.216L144.486,49.304L144.54,49.393L144.649,49.577L144.866,49.968L144.92,50.072L144.974,50.178L145.083,50.4L145.299,50.89L145.354,51.024L145.408,51.165L145.462,51.313L145.516,51.469L145.57,51.635L145.625,51.813L145.679,52.006L145.733,52.218L145.787,52.456L145.841,52.729L145.896,53.059L145.95,53.487L146.004,54.134L146.058,55.548L146.113,82.012L146.167,129.426L146.221,129.407L146.275,129.387L146.384,129.348L146.6,129.27L147.034,129.112L147.085,129.094L147.135,129.075L147.237,129.038L147.439,128.965L147.844,128.816L148.654,128.517L150.273,127.909L153.449,126.679L156.894,125.276L160.109,123.893L163.593,122.294L167.014,120.599L170.205,118.87L173.665,116.772L173.715,116.739L173.766,116.706L173.867,116.64L174.069,116.507L174.472,116.237L175.28,115.681L175.33,115.646L175.381,115.61L175.482,115.539L175.684,115.394L176.087,115.101L176.895,114.492L176.944,114.453L176.994,114.415L177.291,114.181L177.686,113.862L178.478,113.194L178.527,113.151L178.577,113.107L178.676,113.02L178.874,112.843L179.27,112.479L180.061,111.703L180.115,111.648L180.168,111.592L180.276,111.48L180.491,111.251L180.92,110.77L180.974,110.708L181.027,110.645L181.135,110.518L181.35,110.256L181.779,109.699L181.833,109.625L181.886,109.551L181.994,109.399L182.209,109.084L182.262,109.002L182.316,108.919L182.423,108.748L182.638,108.388L182.692,108.293L182.745,108.197L182.853,107.997L182.906,107.893L182.96,107.786L183.067,107.564L183.121,107.448L183.175,107.327L183.282,107.073L183.336,106.938L183.39,106.796L183.497,106.49L183.547,106.334L183.597,106.168L183.647,105.988L183.697,105.792L183.747,105.574L183.797,105.326L183.848,105.034L183.898,104.671L183.948,104.17L183.998,103.313L184.048,100.575L184.098,28.569L184.148,28.586L184.348,28.658L184.399,28.677L184.699,28.785L185.1,28.931L185.2,28.967L185.3,29.004L185.5,29.077L185.901,29.224L186.757,29.541L186.811,29.561L186.92,29.601L187.137,29.682L187.571,29.845L188.44,30.174L190.178,30.842L193.423,32.136L196.604,33.471L200.055,35.008L203.276,36.546L206.766,38.355L210.192,40.328L210.292,40.39L210.392,40.451L210.592,40.575L210.991,40.825L211.79,41.339L213.389,42.427L213.443,42.465L213.497,42.504L213.605,42.581L213.822,42.737L214.255,43.056L215.121,43.719L215.176,43.762L215.338,43.891L215.555,44.066L215.988,44.423L216.854,45.178L216.905,45.224L216.955,45.27L217.057,45.362L217.259,45.551L217.663,45.939L217.714,45.989L217.764,46.039L217.866,46.14L218.068,46.346L218.472,46.774L218.523,46.829L218.573,46.884L218.674,46.997L218.877,47.226L219.281,47.709L219.332,47.772L219.382,47.835L219.483,47.964L219.686,48.229L220.09,48.798L220.14,48.872L220.189,48.946L220.288,49.099L220.487,49.42L220.536,49.503L220.586,49.588L220.685,49.764L220.883,50.136L220.933,50.235L220.982,50.337L221.081,50.548L221.131,50.659L221.18,50.773L221.28,51.014L221.329,51.142L221.379,51.276L221.428,51.416L221.478,51.564L221.527,51.722L221.577,51.89L221.627,52.073L221.676,52.272L221.726,52.495L221.775,52.749L221.825,53.052L221.874,53.436L221.924,53.982L221.973,54.985L222.023,59.286L222.073,129.435L222.122,129.417L222.172,129.399L222.271,129.363L222.469,129.292L222.519,129.274L222.568,129.256L222.667,129.22L222.866,129.148L223.262,129.004L223.37,128.964L223.477,128.925L223.692,128.846L224.123,128.688L224.983,128.369L226.704,127.719L229.915,126.465L230.027,126.421L230.363,126.286L230.811,126.105L231.707,125.739L231.763,125.716L231.82,125.693L231.932,125.647L232.604,125.368L232.716,125.322L233.052,125.181L233.108,125.157L233.164,125.134L233.276,125.087L233.388,125.039L233.444,125.016L233.5,124.992" style="fill:none;fill-rule:nonzero;stroke:rgb(63,61,153);stroke-width:1px;"/>
                    </g>
                    <g transform="matrix(0,-1,1,0,-64.6945,136.286)">
                        <path d="M69.285,77.991L71.306,77.991" style="fill:none;fill-rule:nonzero;stroke:black;stroke-width:0.2px;stroke-linecap:butt;"/>
                    </g>
                    <g transform="matrix(0,-1,1,0,-18.0645,182.916)">
                        <path d="M115.915,77.991L117.936,77.991" style="fill:none;fill-rule:nonzero;stroke:black;stroke-width:0.2px;stroke-linecap:butt;"/>
                    </g>
                    <g transform="matrix(9,0,0,9,67.1814,76.751)">
                    </g>
                    <text x="53.176px" y="76.751px" style="font-family:'Helvetica';font-size:9px;">1<tspan x="57.676px 62.176px " y="76.751px 76.751px ">00</tspan></text>
                    <g transform="matrix(9,0,0,9,113.811,76.751)">
                    </g>
                    <text x="99.806px" y="76.751px" style="font-family:'Helvetica';font-size:9px;">2<tspan x="104.306px 108.806px " y="76.751px 76.751px ">00</tspan></text>
                    <g transform="matrix(9,0,0,9,160.44,76.751)">
                    </g>
                    <text x="146.435px" y="76.751px" style="font-family:'Helvetica';font-size:9px;">3<tspan x="150.935px 155.435px " y="76.751px 76.751px ">00</tspan></text>
                    <g>
                        <text x="0px" y="119.652px" style="font-family:'Mathematica1';font-size:9px;">-</text>
                        <g transform="matrix(9,0,0,9,10.8014,119.652)">
                        </g>
                        <text x="5.796px" y="119.652px" style="font-family:'Helvetica';font-size:9px;">2</text>
                    </g>
                    <g transform="matrix(9,0,0,9,10.8014,18.85)">
                    </g>
                    <text x="5.796px" y="18.85px" style="font-family:'Helvetica';font-size:9px;">2</text>
                    <g>
                        <text x="85.494px" y="8.1px" style="font-family:'Helvetica-Oblique', 'Helvetica';font-style:italic;font-size:10.8px;">y</text>
                        <text x="90.749px" y="10.2px" style="font-family:'Helvetica';font-size:7.668px;">1</text>
                        <text x="94.911px" y="8.1px" style="font-family:'Mathematica2';font-size:10.8px;">H</text>
                        <text x="98.231px" y="8.1px" style="font-family:'Helvetica';font-size:10.8px;">t</text>
                        <g transform="matrix(10.8,0,0,10.8,104.552,8.1)">
                        </g>
                        <text x="101.087px" y="8.1px" style="font-family:'Mathematica2';font-size:10.8px;">L</text>
                    </g>
                    <g transform="matrix(0,-1,1,0,28.5655,229.547)">
                        <path d="M162.546,77.991L164.567,77.991" style="fill:none;fill-rule:nonzero;stroke:black;stroke-width:0.2px;stroke-linecap:butt;"/>
                    </g>
                    <g transform="matrix(0,-1,1,0,75.1945,276.175)">
                        <path d="M209.175,77.991L211.195,77.991" style="fill:none;fill-rule:nonzero;stroke:black;stroke-width:0.2px;stroke-linecap:butt;"/>
                    </g>
                    <g transform="matrix(1,0,0,-1,-57,146.002)">
                        <path d="M66.896,79.001L236.9,79.001" style="fill:none;fill-rule:nonzero;stroke:black;stroke-width:0.2px;stroke-linecap:butt;"/>
                    </g>
                    <g transform="matrix(1,0,0,-1,-57,246.804)">
                        <path d="M70.296,129.402L72.317,129.402" style="fill:none;fill-rule:nonzero;stroke:black;stroke-width:0.2px;stroke-linecap:butt;"/>
                    </g>
                    <g transform="matrix(1,0,0,-1,-57,45.2)">
                        <path d="M70.296,28.6L72.317,28.6" style="fill:none;fill-rule:nonzero;stroke:black;stroke-width:0.2px;stroke-linecap:butt;"/>
                    </g>
                    <g transform="matrix(0,-1,1,0,-65.706,137.298)">
                        <path d="M17.762,79.002L122.83,79.002" style="fill:none;fill-rule:nonzero;stroke:black;stroke-width:0.2px;stroke-linecap:butt;"/>
                    </g>
                </g>
            </g>
        </g>
    </g>
</svg>
