<?xml version="1.0" encoding="UTF-8" standalone="no"?>
<!DOCTYPE svg PUBLIC "-//W3C//DTD SVG 1.1//EN" "http://www.w3.org/Graphics/SVG/1.1/DTD/svg11.dtd">
<svg width="100%" height="100%" viewBox="0 0 560 420" version="1.1" xmlns="http://www.w3.org/2000/svg" xmlns:xlink="http://www.w3.org/1999/xlink" xml:space="preserve" xmlns:serif="http://www.serif.com/" style="fill-rule:evenodd;clip-rule:evenodd;stroke-linejoin:round;stroke-miterlimit:2;">
    <g>
        <rect x="0" y="0" width="560" height="420" style="fill:white;fill-rule:nonzero;"/>
        <rect x="0" y="0" width="560" height="420" style="fill:white;fill-rule:nonzero;"/>
        <path d="M73,357.26L95.423,344.314L73,331.368L73,357.26Z" style="fill:none;stroke:rgb(0,0,255);stroke-width:0.5px;"/>
        <path d="M82.477,366.737L95.423,344.314L108.369,366.737L82.477,366.737Z" style="fill:none;stroke:rgb(0,0,255);stroke-width:0.5px;"/>
        <path d="M481.108,366.737L494.054,344.314L507,366.737L481.108,366.737Z" style="fill:none;stroke:rgb(0,0,255);stroke-width:0.5px;"/>
        <path d="M169.804,38.763L196.114,45.341L169.804,51.918" style="fill:none;stroke:rgb(255,0,0);stroke-width:0.5px;"/>
        <path d="M95.423,45.341L196.114,45.341" style="fill:none;stroke:rgb(255,0,0);stroke-width:0.5px;"/>
        <path d="M95.423,344.314L494.054,344.314" style="fill:none;stroke:black;stroke-width:1px;"/>
        <path d="M95.423,344.314L95.423,45.341" style="fill:none;stroke:black;stroke-width:1px;"/>
        <path d="M95.423,45.341L494.054,344.314" style="fill:none;stroke:black;stroke-width:1px;"/>
        <path d="M98.423,344.314C98.423,342.657 97.08,341.314 95.423,341.314C93.766,341.314 92.423,342.657 92.423,344.314C92.423,345.971 93.766,347.314 95.423,347.314C97.08,347.314 98.423,345.971 98.423,344.314Z" style="fill:white;fill-rule:nonzero;"/>
        <path d="M95.423,341.564C96.942,341.564 98.173,342.795 98.173,344.314C98.173,345.833 96.942,347.064 95.423,347.064C93.904,347.064 92.673,345.833 92.673,344.314C92.673,342.795 93.904,341.564 95.423,341.564ZM95.423,341.064C93.628,341.064 92.173,342.519 92.173,344.314C92.173,346.109 93.628,347.564 95.423,347.564C97.218,347.564 98.673,346.109 98.673,344.314C98.673,342.519 97.218,341.064 95.423,341.064Z" style="fill-rule:nonzero;"/>
        <path d="M497.054,344.314C497.054,342.657 495.711,341.314 494.054,341.314C492.397,341.314 491.054,342.657 491.054,344.314C491.054,345.971 492.397,347.314 494.054,347.314C495.711,347.314 497.054,345.971 497.054,344.314Z" style="fill:white;fill-rule:nonzero;"/>
        <path d="M494.054,341.564C495.573,341.564 496.804,342.795 496.804,344.314C496.804,345.833 495.573,347.064 494.054,347.064C492.535,347.064 491.304,345.833 491.304,344.314C491.304,342.795 492.535,341.564 494.054,341.564ZM494.054,341.064C492.259,341.064 490.804,342.519 490.804,344.314C490.804,346.109 492.259,347.564 494.054,347.564C495.849,347.564 497.304,346.109 497.304,344.314C497.304,342.519 495.849,341.064 494.054,341.064Z" style="fill-rule:nonzero;"/>
        <path d="M98.423,45.341C98.423,43.684 97.08,42.341 95.423,42.341C93.766,42.341 92.423,43.684 92.423,45.341C92.423,46.998 93.766,48.341 95.423,48.341C97.08,48.341 98.423,46.998 98.423,45.341Z" style="fill:white;fill-rule:nonzero;"/>
        <path d="M95.423,42.591C96.942,42.591 98.173,43.822 98.173,45.341C98.173,46.86 96.942,48.091 95.423,48.091C93.904,48.091 92.673,46.86 92.673,45.341C92.673,43.822 93.904,42.591 95.423,42.591ZM95.423,42.091C93.628,42.091 92.173,43.546 92.173,45.341C92.173,47.136 93.628,48.591 95.423,48.591C97.218,48.591 98.673,47.136 98.673,45.341C98.673,43.546 97.218,42.091 95.423,42.091Z" style="fill-rule:nonzero;"/>
    </g>
</svg>
