<?xml version="1.0" encoding="UTF-8" standalone="no"?>
<!DOCTYPE svg PUBLIC "-//W3C//DTD SVG 1.1//EN" "http://www.w3.org/Graphics/SVG/1.1/DTD/svg11.dtd">
<svg width="100%" height="100%" viewBox="0 0 963 696" version="1.1" xmlns="http://www.w3.org/2000/svg" xmlns:xlink="http://www.w3.org/1999/xlink" xml:space="preserve" xmlns:serif="http://www.serif.com/" style="fill-rule:evenodd;clip-rule:evenodd;stroke-miterlimit:2;">
    <g transform="matrix(4.16667,0,0,4.16667,0,0)">
        <rect x="128.505" y="103.67" width="15.105" height="15.104" style="fill:none;stroke:rgb(35,31,32);stroke-width:0.25px;"/>
        <rect x="60.967" y="65.194" width="15.104" height="15.104" style="fill:none;stroke:rgb(35,31,32);stroke-width:0.25px;"/>
        <path d="M75.91,118.887L76.071,23.748" style="fill:none;stroke:rgb(35,31,32);stroke-width:1px;stroke-linecap:round;stroke-linejoin:round;"/>
        <path d="M203.51,118.934L75.91,23.748" style="fill:none;stroke:rgb(35,31,32);stroke-width:1px;stroke-linecap:round;stroke-linejoin:round;"/>
        <path d="M75.91,118.887L203.51,118.887" style="fill:none;stroke:rgb(35,31,32);stroke-width:1px;stroke-linecap:round;stroke-linejoin:round;"/>
        <path d="M75.91,118.887L70.444,128.352L81.375,128.352" style="fill:white;"/>
        <path d="M75.91,118.887L70.444,128.352L81.375,128.352L75.91,118.887Z" style="fill:none;stroke:rgb(35,31,32);stroke-width:0.5px;stroke-linecap:round;stroke-linejoin:round;"/>
        <path d="M77.82,118.993C77.82,118.529 77.635,118.084 77.307,117.756C76.979,117.428 76.535,117.243 76.071,117.243C75.607,117.243 75.162,117.428 74.834,117.756C74.506,118.084 74.322,118.529 74.322,118.993C74.322,119.456 74.506,119.9 74.834,120.228C75.162,120.556 75.607,120.741 76.071,120.741C76.535,120.741 76.979,120.556 77.307,120.228C77.635,119.9 77.82,119.456 77.82,118.993Z" style="fill:white;"/>
        <path d="M77.82,118.993C77.82,118.529 77.635,118.084 77.307,117.756C76.979,117.428 76.535,117.243 76.071,117.243C75.607,117.243 75.162,117.428 74.834,117.756C74.506,118.084 74.322,118.529 74.322,118.993C74.322,119.456 74.506,119.9 74.834,120.228C75.162,120.556 75.607,120.741 76.071,120.741C76.535,120.741 76.979,120.556 77.307,120.228C77.635,119.9 77.82,119.456 77.82,118.993Z" style="fill:none;stroke:rgb(35,31,32);stroke-width:0.5px;stroke-linecap:round;stroke-linejoin:round;"/>
        <path d="M70.444,130.175L72.266,128.352" style="fill:none;stroke:rgb(35,31,32);stroke-width:0.5px;stroke-linecap:round;stroke-linejoin:round;"/>
        <path d="M72.266,130.175L74.088,128.352" style="fill:none;stroke:rgb(35,31,32);stroke-width:0.5px;stroke-linecap:round;stroke-linejoin:round;"/>
        <path d="M74.088,130.175L75.91,128.352" style="fill:none;stroke:rgb(35,31,32);stroke-width:0.5px;stroke-linecap:round;stroke-linejoin:round;"/>
        <path d="M75.91,130.175L77.731,128.352" style="fill:none;stroke:rgb(35,31,32);stroke-width:0.5px;stroke-linecap:round;stroke-linejoin:round;"/>
        <path d="M77.731,130.175L79.554,128.352" style="fill:none;stroke:rgb(35,31,32);stroke-width:0.5px;stroke-linecap:round;stroke-linejoin:round;"/>
        <path d="M79.554,130.175L81.375,128.352" style="fill:none;stroke:rgb(35,31,32);stroke-width:0.5px;stroke-linecap:round;stroke-linejoin:round;"/>
        <path d="M203.51,118.934L198.044,128.401L208.976,128.401" style="fill:white;"/>
        <path d="M203.51,118.934L198.044,128.401L208.976,128.401L203.51,118.934Z" style="fill:none;stroke:rgb(35,31,32);stroke-width:0.5px;stroke-linecap:round;stroke-linejoin:round;"/>
        <path d="M205.42,119.041C205.42,118.577 205.236,118.131 204.908,117.804C204.579,117.475 204.134,117.291 203.67,117.291C203.207,117.291 202.762,117.475 202.434,117.804C202.106,118.131 201.921,118.577 201.921,119.041C201.921,119.504 202.106,119.948 202.434,120.276C202.762,120.604 203.207,120.789 203.67,120.789C204.134,120.789 204.579,120.604 204.908,120.276C205.236,119.948 205.42,119.504 205.42,119.041Z" style="fill:white;"/>
        <path d="M205.42,119.041C205.42,118.577 205.236,118.131 204.908,117.804C204.579,117.475 204.134,117.291 203.67,117.291C203.207,117.291 202.762,117.475 202.434,117.804C202.106,118.131 201.921,118.577 201.921,119.041C201.921,119.504 202.106,119.948 202.434,120.276C202.762,120.604 203.207,120.789 203.67,120.789C204.134,120.789 204.579,120.604 204.908,120.276C205.236,119.948 205.42,119.504 205.42,119.041Z" style="fill:none;stroke:rgb(35,31,32);stroke-width:0.5px;stroke-linecap:round;stroke-linejoin:round;"/>
        <path d="M198.244,129.946L209.237,129.946" style="fill:none;stroke:rgb(35,31,32);stroke-width:0.5px;stroke-linecap:round;stroke-linejoin:round;"/>
        <path d="M75.909,25.617C76.372,25.617 76.818,25.432 77.146,25.104C77.474,24.776 77.659,24.331 77.659,23.868C77.659,23.404 77.474,22.959 77.146,22.631C76.818,22.303 76.372,22.118 75.909,22.118C75.446,22.118 75.001,22.303 74.673,22.631C74.346,22.959 74.161,23.404 74.161,23.868C74.161,24.331 74.346,24.776 74.673,25.104C75.001,25.432 75.446,25.617 75.909,25.617Z" style="fill:white;fill-rule:nonzero;"/>
        <path d="M75.909,25.617C76.372,25.617 76.818,25.432 77.146,25.104C77.474,24.776 77.659,24.331 77.659,23.868C77.659,23.404 77.474,22.959 77.146,22.631C76.818,22.303 76.372,22.118 75.909,22.118C75.446,22.118 75.001,22.303 74.673,22.631C74.346,22.959 74.161,23.404 74.161,23.868C74.161,24.331 74.346,24.776 74.673,25.104C75.001,25.432 75.446,25.617 75.909,25.617Z" style="fill:none;stroke:rgb(35,31,32);stroke-width:0.5px;stroke-linecap:round;stroke-linejoin:round;"/>
        <path d="M48.185,23.869L68.431,23.869" style="fill:none;stroke:rgb(237,28,36);stroke-width:1px;stroke-linecap:round;stroke-linejoin:round;"/>
        <path d="M62.519,27.05L62.178,26.11L68.333,23.869L62.178,21.629L62.519,20.69L71.256,23.869L62.519,27.05Z" style="fill:rgb(237,28,36);fill-rule:nonzero;"/>
        <path d="M75.91,138.922L75.91,157.155" style="fill:none;stroke:rgb(35,31,32);stroke-width:0.5px;stroke-linecap:round;stroke-linejoin:round;"/>
        <path d="M203.741,138.922L203.741,157.155" style="fill:none;stroke:rgb(35,31,32);stroke-width:0.5px;stroke-linecap:round;stroke-linejoin:round;"/>
        <path d="M70.444,148.039L209.237,148.039" style="fill:none;stroke:rgb(35,31,32);stroke-width:0.5px;stroke-linecap:round;stroke-linejoin:round;"/>
        <path d="M9.584,118.774L27.818,118.774" style="fill:none;stroke:rgb(35,31,32);stroke-width:0.5px;stroke-linecap:round;stroke-linejoin:round;"/>
        <path d="M9.584,23.945L27.818,23.945" style="fill:none;stroke:rgb(35,31,32);stroke-width:0.5px;stroke-linecap:round;stroke-linejoin:round;"/>
        <path d="M18.701,124.24L18.701,18.449" style="fill:none;stroke:rgb(35,31,32);stroke-width:0.5px;stroke-linecap:round;stroke-linejoin:round;"/>
        <path d="M77.82,79.058L77.82,67.139" style="fill:none;stroke:rgb(35,31,32);stroke-width:0.25px;stroke-linecap:round;stroke-linejoin:round;"/>
        <path d="M78.615,68.617L78.38,68.703L77.82,67.164L77.26,68.703L77.025,68.617L77.82,66.433L78.615,68.617Z" style="fill:rgb(35,31,32);fill-rule:nonzero;"/>
        <path d="M130.298,120.789L142.217,120.789" style="fill:none;stroke:rgb(35,31,32);stroke-width:0.25px;stroke-linecap:round;stroke-linejoin:round;"/>
        <path d="M140.74,121.584L140.654,121.348L142.193,120.789L140.654,120.228L140.74,119.994L142.924,120.789L140.74,121.584Z" style="fill:rgb(35,31,32);fill-rule:nonzero;"/>
        <path d="M138.48,72.851L129.024,65.595" style="fill:none;stroke:rgb(35,31,32);stroke-width:0.25px;stroke-linecap:round;stroke-linejoin:round;"/>
        <path d="M137.791,71.32L137.58,71.455L138.46,72.836L136.899,72.343L136.824,72.582L139.04,73.281L137.791,71.32Z" style="fill:rgb(35,31,32);fill-rule:nonzero;"/>
        <g>
            <path d="M131.329,140.982L131.329,141.846C131.329,142.204 131.309,142.313 130.575,142.313L130.366,142.313L130.366,142.621C130.774,142.592 131.29,142.592 131.707,142.592C132.125,142.592 132.652,142.592 133.058,142.621L133.058,142.313L132.85,142.313C132.114,142.313 132.095,142.204 132.095,141.846L132.095,140.982L133.087,140.982L133.087,140.674L132.095,140.674L132.095,136.154C132.095,135.955 132.095,135.896 131.936,135.896C131.847,135.896 131.817,135.896 131.738,136.014L128.688,140.674L128.688,140.982L131.329,140.982ZM131.389,140.674L128.965,140.674L131.389,136.97L131.389,140.674Z" style="fill:rgb(35,31,32);fill-rule:nonzero;"/>
            <path d="M136.102,139.204L136.102,141.866C136.102,142.313 135.993,142.313 135.327,142.313L135.327,142.621C135.675,142.611 136.181,142.592 136.45,142.592C136.707,142.592 137.225,142.611 137.563,142.621L137.563,142.313C136.897,142.313 136.787,142.313 136.787,141.866L136.787,140.038C136.787,139.006 137.493,138.449 138.128,138.449C138.754,138.449 138.865,138.985 138.865,139.553L138.865,141.866C138.865,142.313 138.754,142.313 138.089,142.313L138.089,142.621C138.436,142.611 138.944,142.592 139.211,142.592C139.47,142.592 139.986,142.611 140.324,142.621L140.324,142.313C139.658,142.313 139.548,142.313 139.548,141.866L139.548,140.038C139.548,139.006 140.254,138.449 140.891,138.449C141.516,138.449 141.625,138.985 141.625,139.553L141.625,141.866C141.625,142.313 141.516,142.313 140.85,142.313L140.85,142.621C141.199,142.611 141.704,142.592 141.974,142.592C142.232,142.592 142.748,142.611 143.086,142.621L143.086,142.313C142.569,142.313 142.321,142.313 142.311,142.014L142.311,140.118C142.311,139.264 142.311,138.955 142.003,138.597C141.865,138.429 141.536,138.23 140.959,138.23C140.125,138.23 139.688,138.826 139.519,139.204C139.379,138.34 138.645,138.23 138.199,138.23C137.473,138.23 137.006,138.657 136.728,139.272L136.728,138.23L135.327,138.34L135.327,138.647C136.022,138.647 136.102,138.717 136.102,139.204Z" style="fill:rgb(35,31,32);fill-rule:nonzero;"/>
        </g>
        <g>
            <path d="M12.787,76.21C12.519,75.396 11.824,74.82 11.039,74.82C10.225,74.82 9.669,75.695 9.669,76.648C9.669,77.651 10.264,78.406 11.019,78.406C11.347,78.406 11.536,78.187 11.536,77.899C11.536,77.592 11.317,77.393 11.03,77.393C10.533,77.393 10.533,77.86 10.533,78.009C10.045,77.701 9.917,77.045 9.917,76.687C9.917,76.281 10.136,75.734 11.03,75.734C11.148,75.734 11.725,75.754 12.162,76.012C12.639,76.31 12.669,76.648 12.678,76.896C12.689,76.976 12.708,77.213 12.708,77.283C12.719,77.363 12.728,77.432 12.828,77.432C12.936,77.432 12.936,77.363 12.936,77.195L12.936,76.757C12.936,75.943 13.613,75.574 14.586,75.574C15.936,75.574 16.225,76.26 16.225,76.698C16.225,77.124 16.056,77.869 15.471,78.218C15.519,77.869 15.302,77.562 14.924,77.562C14.566,77.562 14.367,77.83 14.367,78.118C14.367,78.357 14.506,78.674 14.944,78.674C15.847,78.674 16.503,77.751 16.503,76.668C16.503,75.455 15.599,74.553 14.586,74.553C13.772,74.553 12.997,75.178 12.787,76.21Z" style="fill:rgb(35,31,32);fill-rule:nonzero;"/>
            <path d="M12.867,71.399L15.53,71.399C15.976,71.399 15.976,71.509 15.976,72.174L16.285,72.174C16.275,71.826 16.255,71.32 16.255,71.051C16.255,70.793 16.275,70.276 16.285,69.938L15.976,69.938C15.976,70.604 15.976,70.713 15.53,70.713L13.702,70.713C12.669,70.713 12.113,70.009 12.113,69.372C12.113,68.746 12.648,68.637 13.216,68.637L15.53,68.637C15.976,68.637 15.976,68.746 15.976,69.411L16.285,69.411C16.275,69.065 16.255,68.557 16.255,68.29C16.255,68.031 16.275,67.515 16.285,67.177L15.976,67.177C15.976,67.843 15.976,67.952 15.53,67.952L13.702,67.952C12.669,67.952 12.113,67.246 12.113,66.61C12.113,65.985 12.648,65.876 13.216,65.876L15.53,65.876C15.976,65.876 15.976,65.985 15.976,66.651L16.285,66.651C16.275,66.302 16.255,65.796 16.255,65.527C16.255,65.269 16.275,64.752 16.285,64.415L15.976,64.415C15.976,64.932 15.976,65.18 15.678,65.19L13.781,65.19C12.927,65.19 12.619,65.19 12.261,65.497C12.092,65.637 11.894,65.965 11.894,66.541C11.894,67.376 12.489,67.813 12.867,67.982C12.003,68.121 11.894,68.855 11.894,69.302C11.894,70.027 12.32,70.494 12.936,70.773L11.894,70.773L12.003,72.174L12.311,72.174C12.311,71.479 12.38,71.399 12.867,71.399Z" style="fill:rgb(35,31,32);fill-rule:nonzero;"/>
        </g>
        <path d="M137.008,108.173C137.008,107.934 137.008,107.914 136.78,107.914C136.164,108.551 135.289,108.551 134.972,108.551L134.972,108.858C135.17,108.858 135.756,108.858 136.274,108.6L136.274,113.746C136.274,114.103 136.244,114.222 135.349,114.222L135.032,114.222L135.032,114.53C135.378,114.501 136.244,114.501 136.641,114.501C137.037,114.501 137.902,114.501 138.25,114.53L138.25,114.222L137.932,114.222C137.037,114.222 137.008,114.113 137.008,113.746L137.008,108.173Z" style="fill:rgb(35,31,32);fill-rule:nonzero;"/>
        <path d="M68.915,115.884C68.915,115.646 68.915,115.626 68.687,115.626C68.072,116.263 67.197,116.263 66.88,116.263L66.88,116.57C67.078,116.57 67.664,116.57 68.181,116.312L68.181,121.458C68.181,121.815 68.151,121.934 67.256,121.934L66.939,121.934L66.939,122.242C67.286,122.212 68.151,122.212 68.548,122.212C68.945,122.212 69.809,122.212 70.158,122.242L70.158,121.934L69.839,121.934C68.945,121.934 68.915,121.825 68.915,121.458L68.915,115.884Z" style="fill:rgb(35,31,32);fill-rule:nonzero;"/>
        <path d="M151.435,60.634L139.324,51.61L130.298,63.721L142.411,72.745L151.435,60.634Z" style="fill:none;stroke:rgb(35,31,32);stroke-width:0.25px;"/>
        <path d="M67.748,75.295L68.748,74.221C70.226,72.771 70.795,72.206 70.745,71.213C70.687,70.082 69.753,69.335 68.543,69.396C67.421,69.453 66.734,70.404 66.779,71.287C66.808,71.843 67.304,71.817 67.333,71.816C67.502,71.807 67.843,71.669 67.822,71.263C67.808,71.005 67.618,70.756 67.269,70.774C67.192,70.778 67.171,70.779 67.142,70.79C67.337,70.134 67.853,69.74 68.43,69.71C69.333,69.664 69.8,70.447 69.841,71.26C69.882,72.054 69.426,72.862 68.911,73.505L67.115,75.726C67.012,75.841 67.013,75.859 67.025,76.098L70.706,75.91L70.895,74.17L70.647,74.183C70.613,74.484 70.565,74.923 70.474,75.077C70.408,75.159 69.754,75.192 69.536,75.203L67.748,75.295Z" style="fill:rgb(35,31,32);fill-rule:nonzero;"/>
        <path d="M210.288,121.316L211.341,120.295C212.891,118.923 213.489,118.387 213.489,117.393C213.489,116.261 212.593,115.467 211.382,115.467C210.258,115.467 209.524,116.381 209.524,117.264C209.524,117.821 210.021,117.821 210.051,117.821C210.219,117.821 210.567,117.701 210.567,117.295C210.567,117.035 210.388,116.777 210.039,116.777C209.961,116.777 209.942,116.777 209.911,116.787C210.14,116.141 210.676,115.774 211.252,115.774C212.157,115.774 212.583,116.579 212.583,117.393C212.583,118.188 212.086,118.972 211.539,119.589L209.633,121.715C209.524,121.824 209.524,121.843 209.524,122.082L213.21,122.082L213.489,120.354L213.24,120.354C213.19,120.652 213.119,121.089 213.021,121.238C212.951,121.316 212.296,121.316 212.077,121.316L210.288,121.316Z" style="fill:rgb(35,31,32);fill-rule:nonzero;"/>
        <path d="M141.27,61.879C142.084,61.61 142.661,60.915 142.661,60.131C142.661,59.317 141.786,58.76 140.832,58.76C139.829,58.76 139.075,59.356 139.075,60.11C139.075,60.438 139.293,60.627 139.581,60.627C139.889,60.627 140.087,60.408 140.087,60.121C140.087,59.624 139.62,59.624 139.472,59.624C139.78,59.137 140.436,59.009 140.793,59.009C141.2,59.009 141.746,59.227 141.746,60.121C141.746,60.24 141.726,60.817 141.468,61.254C141.17,61.731 140.832,61.76 140.584,61.77C140.504,61.781 140.267,61.799 140.197,61.799C140.117,61.81 140.048,61.82 140.048,61.92C140.048,62.028 140.117,62.028 140.286,62.028L140.723,62.028C141.537,62.028 141.906,62.704 141.906,63.678C141.906,65.028 141.22,65.317 140.783,65.317C140.356,65.317 139.611,65.148 139.262,64.562C139.611,64.61 139.918,64.393 139.918,64.015C139.918,63.657 139.65,63.459 139.363,63.459C139.123,63.459 138.806,63.598 138.806,64.035C138.806,64.938 139.73,65.595 140.812,65.595C142.025,65.595 142.928,64.69 142.928,63.678C142.928,62.864 142.303,62.088 141.27,61.879Z" style="fill:rgb(35,31,32);fill-rule:nonzero;"/>
        <path d="M76.474,14.103C77.288,13.834 77.864,13.138 77.864,12.354C77.864,11.54 76.989,10.984 76.037,10.984C75.033,10.984 74.278,11.579 74.278,12.334C74.278,12.662 74.497,12.851 74.785,12.851C75.093,12.851 75.291,12.632 75.291,12.345C75.291,11.848 74.824,11.848 74.675,11.848C74.983,11.361 75.64,11.232 75.997,11.232C76.403,11.232 76.95,11.451 76.95,12.345C76.95,12.464 76.93,13.04 76.672,13.478C76.374,13.954 76.037,13.984 75.788,13.993C75.708,14.004 75.471,14.023 75.4,14.023C75.321,14.034 75.252,14.043 75.252,14.143C75.252,14.251 75.321,14.251 75.489,14.251L75.927,14.251C76.741,14.251 77.11,14.928 77.11,15.901C77.11,17.251 76.424,17.54 75.986,17.54C75.559,17.54 74.814,17.371 74.466,16.785C74.814,16.834 75.122,16.616 75.122,16.239C75.122,15.881 74.853,15.682 74.566,15.682C74.327,15.682 74.01,15.822 74.01,16.259C74.01,17.162 74.933,17.818 76.016,17.818C77.228,17.818 78.132,16.913 78.132,15.901C78.132,15.087 77.507,14.312 76.474,14.103Z" style="fill:rgb(35,31,32);fill-rule:nonzero;"/>
        <path d="M8.701,158.039L31.969,158.039" style="fill:none;stroke:rgb(35,31,32);stroke-width:0.5px;stroke-linecap:round;stroke-linejoin:round;"/>
        <path d="M29.013,159.629L28.842,159.159L31.92,158.039L28.842,156.919L29.013,156.449L33.382,158.039L29.013,159.629Z" style="fill:rgb(35,31,32);fill-rule:nonzero;"/>
        <path d="M8.701,158.039L8.701,134.771" style="fill:none;stroke:rgb(35,31,32);stroke-width:0.5px;stroke-linecap:round;stroke-linejoin:round;"/>
        <path d="M10.291,137.726L9.821,137.897L8.701,134.82L7.581,137.897L7.111,137.726L8.701,133.358L10.291,137.726Z" style="fill:rgb(35,31,32);fill-rule:nonzero;"/>
        <path d="M31.835,163.7C31.896,163.442 32.124,162.528 32.82,162.528C32.87,162.528 33.107,162.528 33.316,162.656C33.038,162.706 32.84,162.955 32.84,163.193C32.84,163.351 32.948,163.541 33.216,163.541C33.435,163.541 33.752,163.362 33.752,162.966C33.752,162.448 33.166,162.309 32.829,162.309C32.252,162.309 31.906,162.836 31.787,163.064C31.538,162.409 31.001,162.309 30.713,162.309C29.681,162.309 29.113,163.591 29.113,163.839C29.113,163.939 29.213,163.939 29.234,163.939C29.313,163.939 29.343,163.919 29.362,163.83C29.701,162.776 30.355,162.528 30.693,162.528C30.882,162.528 31.23,162.617 31.23,163.193C31.23,163.502 31.062,164.167 30.693,165.557C30.535,166.174 30.187,166.591 29.749,166.591C29.69,166.591 29.462,166.591 29.252,166.461C29.501,166.412 29.72,166.203 29.72,165.925C29.72,165.656 29.501,165.578 29.352,165.578C29.054,165.578 28.806,165.836 28.806,166.153C28.806,166.611 29.302,166.809 29.74,166.809C30.396,166.809 30.752,166.114 30.784,166.055C30.902,166.422 31.26,166.809 31.855,166.809C32.879,166.809 33.445,165.528 33.445,165.279C33.445,165.18 33.355,165.18 33.326,165.18C33.237,165.18 33.216,165.221 33.196,165.289C32.87,166.351 32.193,166.591 31.876,166.591C31.488,166.591 31.329,166.273 31.329,165.934C31.329,165.717 31.388,165.498 31.497,165.06L31.835,163.7Z" style="fill:rgb(35,31,32);fill-rule:nonzero;"/>
        <path d="M5.528,134.508C5.567,134.369 5.567,134.348 5.567,134.28C5.567,134.1 5.428,134.011 5.279,134.011C5.179,134.011 5.021,134.07 4.931,134.219C4.912,134.268 4.832,134.577 4.792,134.757C4.723,135.014 4.653,135.283 4.593,135.55L4.146,137.339C4.107,137.487 3.679,138.182 3.024,138.182C2.516,138.182 2.409,137.745 2.409,137.378C2.409,136.922 2.577,136.305 2.915,135.431C3.073,135.023 3.114,134.914 3.114,134.716C3.114,134.268 2.795,133.901 2.3,133.901C1.356,133.901 0.987,135.343 0.987,135.431C0.987,135.531 1.087,135.531 1.107,135.531C1.206,135.531 1.217,135.511 1.265,135.351C1.534,134.419 1.931,134.12 2.268,134.12C2.348,134.12 2.516,134.12 2.516,134.437C2.516,134.686 2.418,134.944 2.348,135.133C1.951,136.186 1.773,136.753 1.773,137.219C1.773,138.103 2.398,138.401 2.984,138.401C3.371,138.401 3.709,138.233 3.987,137.955C3.859,138.471 3.739,138.958 3.342,139.484C3.084,139.822 2.706,140.109 2.249,140.109C2.11,140.109 1.663,140.08 1.495,139.692C1.653,139.692 1.782,139.692 1.921,139.573C2.021,139.484 2.12,139.354 2.12,139.166C2.12,138.858 1.851,138.819 1.753,138.819C1.524,138.819 1.196,138.978 1.196,139.464C1.196,139.961 1.634,140.328 2.249,140.328C3.273,140.328 4.295,139.425 4.573,138.302L5.528,134.508Z" style="fill:rgb(35,31,32);fill-rule:nonzero;"/>
        <g>
            <path d="M180.044,5.424C180.065,5.373 180.094,5.303 180.094,5.285C180.094,5.273 180.094,5.175 179.975,5.175C179.885,5.175 179.866,5.234 179.846,5.294C179.201,6.764 178.833,7.43 177.133,7.43L175.683,7.43C175.544,7.43 175.524,7.43 175.464,7.42C175.366,7.41 175.336,7.4 175.336,7.32C175.336,7.291 175.336,7.27 175.385,7.092L176.061,4.38L177.044,4.38C177.889,4.38 177.889,4.589 177.889,4.838C177.889,4.906 177.889,5.025 177.819,5.324C177.799,5.373 177.789,5.403 177.789,5.433C177.789,5.483 177.828,5.542 177.919,5.542C177.998,5.542 178.029,5.492 178.068,5.344L178.633,3.019C178.633,2.959 178.584,2.91 178.514,2.91C178.425,2.91 178.405,2.969 178.375,3.089C178.167,3.844 177.988,4.072 177.074,4.072L176.141,4.072L176.737,1.678C176.826,1.33 176.836,1.291 177.272,1.291L178.674,1.291C179.885,1.291 180.183,1.578 180.183,2.394C180.183,2.631 180.183,2.652 180.144,2.92C180.144,2.98 180.133,3.049 180.133,3.098C180.133,3.148 180.162,3.217 180.253,3.217C180.363,3.217 180.372,3.158 180.393,2.969L180.591,1.252C180.62,0.983 180.571,0.983 180.323,0.983L175.307,0.983C175.107,0.983 175.008,0.983 175.008,1.181C175.008,1.291 175.097,1.291 175.286,1.291C175.654,1.291 175.932,1.291 175.932,1.469C175.932,1.51 175.932,1.53 175.881,1.708L174.571,6.963C174.472,7.35 174.452,7.43 173.667,7.43C173.498,7.43 173.389,7.43 173.389,7.619C173.389,7.738 173.479,7.738 173.667,7.738L178.823,7.738C179.05,7.738 179.061,7.728 179.13,7.569L180.044,5.424Z" style="fill:rgb(35,31,32);fill-rule:nonzero;"/>
            <path d="M182.69,6.596C182.292,7.261 181.905,7.4 181.467,7.43C181.349,7.439 181.26,7.439 181.26,7.628C181.26,7.687 181.308,7.738 181.388,7.738C181.657,7.738 181.964,7.708 182.243,7.708C182.571,7.708 182.917,7.738 183.237,7.738C183.295,7.738 183.424,7.738 183.424,7.549C183.424,7.439 183.334,7.43 183.266,7.43C183.037,7.41 182.799,7.33 182.799,7.081C182.799,6.963 182.858,6.853 182.938,6.714L183.693,5.442L186.186,5.442C186.206,5.652 186.346,7.003 186.346,7.101C186.346,7.4 185.828,7.43 185.63,7.43C185.491,7.43 185.391,7.43 185.391,7.628C185.391,7.738 185.511,7.738 185.53,7.738C185.938,7.738 186.365,7.708 186.772,7.708C187.021,7.708 187.646,7.738 187.894,7.738C187.955,7.738 188.074,7.738 188.074,7.539C188.074,7.43 187.974,7.43 187.846,7.43C187.229,7.43 187.229,7.359 187.199,7.072L186.594,0.864C186.574,0.664 186.574,0.625 186.405,0.625C186.245,0.625 186.206,0.694 186.146,0.794L182.69,6.596ZM183.881,5.135L185.838,1.856L186.157,5.135L183.881,5.135Z" style="fill:rgb(35,31,32);fill-rule:nonzero;"/>
            <path d="M197.936,4.489C198.084,4.489 198.274,4.489 198.274,4.291C198.274,4.092 198.084,4.092 197.946,4.092L191.995,4.092C191.857,4.092 191.667,4.092 191.667,4.291C191.667,4.489 191.857,4.489 192.005,4.489L197.936,4.489ZM197.946,6.416C198.084,6.416 198.274,6.416 198.274,6.217C198.274,6.019 198.084,6.019 197.936,6.019L192.005,6.019C191.857,6.019 191.667,6.019 191.667,6.217C191.667,6.416 191.857,6.416 191.995,6.416L197.946,6.416Z" style="fill:rgb(35,31,32);fill-rule:nonzero;"/>
            <path d="M202.922,4.48L202.922,4.241C202.922,1.728 204.155,1.37 204.661,1.37C204.899,1.37 205.316,1.43 205.535,1.767C205.386,1.767 204.99,1.767 204.99,2.214C204.99,2.522 205.227,2.672 205.446,2.672C205.605,2.672 205.902,2.581 205.902,2.194C205.902,1.598 205.466,1.122 204.641,1.122C203.369,1.122 202.029,2.403 202.029,4.598C202.029,7.25 203.18,7.956 204.105,7.956C205.206,7.956 206.151,7.022 206.151,5.711C206.151,4.45 205.268,3.495 204.164,3.495C203.49,3.495 203.12,4.003 202.922,4.48ZM204.105,7.678C203.479,7.678 203.18,7.081 203.12,6.933C202.943,6.466 202.943,5.672 202.943,5.492C202.943,4.717 203.26,3.725 204.155,3.725C204.313,3.725 204.771,3.725 205.078,4.341C205.256,4.708 205.256,5.214 205.256,5.702C205.256,6.178 205.256,6.675 205.088,7.033C204.789,7.628 204.333,7.678 204.105,7.678Z" style="fill:rgb(35,31,32);fill-rule:nonzero;"/>
            <path d="M211.18,4.559C211.18,3.764 211.131,2.969 210.784,2.234C210.327,1.281 209.511,1.122 209.094,1.122C208.498,1.122 207.774,1.38 207.366,2.303C207.049,2.989 206.998,3.764 206.998,4.559C206.998,5.303 207.037,6.199 207.446,6.953C207.872,7.758 208.599,7.956 209.084,7.956C209.62,7.956 210.377,7.747 210.813,6.803C211.131,6.119 211.18,5.344 211.18,4.559ZM209.084,7.738C208.698,7.738 208.112,7.489 207.933,6.536C207.824,5.939 207.824,5.025 207.824,4.439C207.824,3.803 207.824,3.148 207.902,2.611C208.091,1.43 208.836,1.341 209.084,1.341C209.412,1.341 210.068,1.519 210.256,2.503C210.357,3.059 210.357,3.814 210.357,4.439C210.357,5.184 210.357,5.859 210.247,6.495C210.099,7.439 209.532,7.738 209.084,7.738Z" style="fill:rgb(35,31,32);fill-rule:nonzero;"/>
            <path d="M215.705,1.172C215.616,0.953 215.586,0.953 215.358,0.953L213.678,0.953L213.678,1.261L213.917,1.261C214.682,1.261 214.702,1.37 214.702,1.728L214.702,6.694C214.702,6.963 214.702,7.43 213.678,7.43L213.678,7.738C214.027,7.728 214.513,7.708 214.841,7.708C215.169,7.708 215.655,7.728 216.003,7.738L216.003,7.43C214.98,7.43 214.98,6.963 214.98,6.694L214.98,1.341L214.99,1.341L217.385,7.519C217.433,7.648 217.483,7.738 217.583,7.738C217.693,7.738 217.722,7.658 217.761,7.549L220.205,1.261L220.216,1.261L220.216,6.963C220.216,7.32 220.196,7.43 219.43,7.43L219.193,7.43L219.193,7.738C219.56,7.708 220.235,7.708 220.622,7.708C221.01,7.708 221.675,7.708 222.042,7.738L222.042,7.43L221.805,7.43C221.039,7.43 221.019,7.32 221.019,6.963L221.019,1.728C221.019,1.37 221.039,1.261 221.805,1.261L222.042,1.261L222.042,0.953L220.365,0.953C220.107,0.953 220.107,0.963 220.036,1.142L217.862,6.734L215.705,1.172Z" style="fill:rgb(35,31,32);fill-rule:nonzero;"/>
            <path d="M224.716,1.081C224.627,0.963 224.616,0.953 224.428,0.953L222.74,0.953L222.74,1.261L223.027,1.261C223.177,1.261 223.375,1.27 223.524,1.281C223.752,1.311 223.763,1.32 223.763,1.51L223.763,6.694C223.763,6.963 223.763,7.43 222.74,7.43L222.74,7.738C223.086,7.728 223.574,7.708 223.902,7.708C224.229,7.708 224.716,7.728 225.063,7.738L225.063,7.43C224.041,7.43 224.041,6.963 224.041,6.694L224.041,1.53C224.089,1.578 224.1,1.589 224.139,1.648L228.193,7.608C228.282,7.728 228.292,7.738 228.362,7.738C228.5,7.738 228.5,7.667 228.5,7.48L228.5,1.995C228.5,1.728 228.5,1.261 229.524,1.261L229.524,0.953C229.177,0.963 228.69,0.983 228.362,0.983C228.034,0.983 227.547,0.963 227.199,0.953L227.199,1.261C228.222,1.261 228.222,1.728 228.222,1.995L228.222,6.238L224.716,1.081Z" style="fill:rgb(35,31,32);fill-rule:nonzero;"/>
        </g>
        <g>
            <path d="M15.183,4.51L16.148,4.51C16.893,4.51 16.973,4.669 16.973,4.956C16.973,5.025 16.973,5.145 16.902,5.442C16.882,5.492 16.872,5.533 16.872,5.552C16.872,5.631 16.932,5.672 16.992,5.672C17.091,5.672 17.091,5.642 17.142,5.463L17.687,3.308C17.718,3.199 17.718,3.178 17.718,3.148C17.718,3.128 17.698,3.039 17.598,3.039C17.499,3.039 17.488,3.089 17.449,3.247C17.24,4.022 17.012,4.202 16.168,4.202L15.263,4.202L15.899,1.678C15.988,1.33 15.999,1.291 16.435,1.291L17.747,1.291C18.97,1.291 19.198,1.619 19.198,2.383C19.198,2.611 19.198,2.652 19.168,2.92C19.148,3.049 19.148,3.069 19.148,3.098C19.148,3.148 19.177,3.217 19.267,3.217C19.376,3.217 19.387,3.158 19.406,2.969L19.604,1.252C19.635,0.983 19.585,0.983 19.337,0.983L14.47,0.983C14.269,0.983 14.171,0.983 14.171,1.181C14.171,1.291 14.26,1.291 14.449,1.291C14.816,1.291 15.095,1.291 15.095,1.469C15.095,1.51 15.095,1.53 15.044,1.708L13.734,6.963C13.635,7.35 13.615,7.43 12.83,7.43C12.662,7.43 12.552,7.43 12.552,7.619C12.552,7.738 12.671,7.738 12.701,7.738C12.988,7.738 13.724,7.708 14.012,7.708C14.34,7.708 15.165,7.738 15.492,7.738C15.582,7.738 15.701,7.738 15.701,7.549C15.701,7.469 15.642,7.45 15.642,7.439C15.612,7.43 15.591,7.43 15.363,7.43C15.144,7.43 15.095,7.43 14.846,7.41C14.558,7.38 14.529,7.341 14.529,7.211C14.529,7.191 14.529,7.131 14.568,6.983L15.183,4.51Z" style="fill:rgb(35,31,32);fill-rule:nonzero;"/>
            <path d="M29.499,4.489C29.647,4.489 29.837,4.489 29.837,4.291C29.837,4.092 29.647,4.092 29.509,4.092L23.558,4.092C23.419,4.092 23.23,4.092 23.23,4.291C23.23,4.489 23.419,4.489 23.568,4.489L29.499,4.489ZM29.509,6.416C29.647,6.416 29.837,6.416 29.837,6.217C29.837,6.019 29.647,6.019 29.499,6.019L23.568,6.019C23.419,6.019 23.23,6.019 23.23,6.217C23.23,6.416 23.419,6.416 23.558,6.416L29.509,6.416Z" style="fill:rgb(35,31,32);fill-rule:nonzero;"/>
            <path d="M36.095,1.38C36.095,1.142 36.095,1.122 35.867,1.122C35.251,1.758 34.376,1.758 34.058,1.758L34.058,2.066C34.257,2.066 34.843,2.066 35.36,1.808L35.36,6.953C35.36,7.311 35.33,7.43 34.435,7.43L34.118,7.43L34.118,7.738C34.465,7.708 35.33,7.708 35.727,7.708C36.124,7.708 36.988,7.708 37.337,7.738L37.337,7.43L37.018,7.43C36.124,7.43 36.095,7.32 36.095,6.953L36.095,1.38Z" style="fill:rgb(35,31,32);fill-rule:nonzero;"/>
            <path d="M39.435,6.972L40.488,5.95C42.038,4.578 42.635,4.042 42.635,3.049C42.635,1.916 41.74,1.122 40.529,1.122C39.406,1.122 38.671,2.036 38.671,2.92C38.671,3.476 39.168,3.476 39.198,3.476C39.367,3.476 39.713,3.356 39.713,2.95C39.713,2.691 39.535,2.433 39.187,2.433C39.109,2.433 39.088,2.433 39.058,2.442C39.287,1.797 39.823,1.43 40.399,1.43C41.304,1.43 41.73,2.234 41.73,3.049C41.73,3.844 41.234,4.628 40.687,5.244L38.781,7.37C38.671,7.48 38.671,7.498 38.671,7.738L42.357,7.738L42.635,6.01L42.387,6.01C42.337,6.308 42.266,6.744 42.168,6.894C42.098,6.972 41.443,6.972 41.224,6.972L39.435,6.972Z" style="fill:rgb(35,31,32);fill-rule:nonzero;"/>
            <path d="M47.743,4.559C47.743,3.764 47.694,2.969 47.346,2.234C46.89,1.281 46.074,1.122 45.657,1.122C45.062,1.122 44.337,1.38 43.929,2.303C43.612,2.989 43.562,3.764 43.562,4.559C43.562,5.303 43.601,6.199 44.009,6.953C44.435,7.758 45.162,7.956 45.647,7.956C46.183,7.956 46.94,7.747 47.376,6.803C47.694,6.119 47.743,5.344 47.743,4.559ZM45.647,7.738C45.26,7.738 44.674,7.489 44.496,6.536C44.387,5.939 44.387,5.025 44.387,4.439C44.387,3.803 44.387,3.148 44.465,2.611C44.654,1.43 45.399,1.341 45.647,1.341C45.976,1.341 46.63,1.519 46.819,2.503C46.919,3.059 46.919,3.814 46.919,4.439C46.919,5.184 46.919,5.859 46.81,6.495C46.662,7.439 46.095,7.738 45.647,7.738Z" style="fill:rgb(35,31,32);fill-rule:nonzero;"/>
            <path d="M50.827,6.983C50.827,7.43 50.718,7.43 50.052,7.43L50.052,7.738C50.38,7.728 50.848,7.708 51.135,7.708C51.433,7.708 51.83,7.717 52.227,7.738L52.227,7.43C51.562,7.43 51.452,7.43 51.452,6.983L51.452,5.959L52.088,5.412C52.854,6.466 53.271,7.022 53.271,7.202C53.271,7.389 53.102,7.43 52.913,7.43L52.913,7.738C53.191,7.728 53.777,7.708 53.987,7.708C54.274,7.708 54.562,7.717 54.851,7.738L54.851,7.43C54.482,7.43 54.265,7.43 53.887,6.903L52.626,5.125C52.615,5.105 52.565,5.045 52.565,5.015C52.565,4.976 53.271,4.38 53.37,4.3C53.996,3.794 54.413,3.773 54.621,3.764L54.621,3.456C54.333,3.486 54.204,3.486 53.926,3.486C53.569,3.486 52.952,3.466 52.813,3.456L52.813,3.764C53.002,3.773 53.102,3.883 53.102,4.013C53.102,4.211 52.963,4.33 52.884,4.4L51.484,5.611L51.484,0.844L50.052,0.953L50.052,1.261C50.747,1.261 50.827,1.33 50.827,1.817L50.827,6.983Z" style="fill:rgb(35,31,32);fill-rule:nonzero;"/>
            <path d="M57.379,1.081C57.29,0.963 57.279,0.953 57.091,0.953L55.402,0.953L55.402,1.261L55.69,1.261C55.84,1.261 56.038,1.27 56.187,1.281C56.415,1.311 56.426,1.32 56.426,1.51L56.426,6.694C56.426,6.963 56.426,7.43 55.402,7.43L55.402,7.738C55.749,7.728 56.237,7.708 56.565,7.708C56.891,7.708 57.379,7.728 57.726,7.738L57.726,7.43C56.704,7.43 56.704,6.963 56.704,6.694L56.704,1.53C56.752,1.578 56.763,1.589 56.802,1.648L60.855,7.608C60.944,7.728 60.955,7.738 61.024,7.738C61.163,7.738 61.163,7.667 61.163,7.48L61.163,1.995C61.163,1.728 61.163,1.261 62.187,1.261L62.187,0.953C61.84,0.963 61.352,0.983 61.024,0.983C60.696,0.983 60.21,0.963 59.862,0.953L59.862,1.261C60.885,1.261 60.885,1.728 60.885,1.995L60.885,6.238L57.379,1.081Z" style="fill:rgb(35,31,32);fill-rule:nonzero;"/>
        </g>
    </g>
</svg>
